<?xml version="1.0" encoding="utf-8"?>
<svg xmlns="http://www.w3.org/2000/svg" viewBox="0 0 213.3 213.3">
<style type="text/css">
	.st0{fill:#2D50A7;}.st1{fill:#759BD3;}.st2{fill:#355EC9;}.st3{fill:#B5C3E2;}.st4{fill:#3D6DEB;}.st5{fill:#598AE2;}.st6{fill:#A2B8DD;}
</style>
<path class="st0" d="M203.6,97h-38.8c-5.4,0-9.7,4.3-9.7,9.7s4.3,9.7,9.7,9.7h38.8c5.4,0,9.7-4.3,9.7-9.7S209,97,203.6,97z"/>
<path class="st1" d="M48.5,97H9.7c-5.4,0-9.7,4.3-9.7,9.7s4.3,9.7,9.7,9.7h38.8c5.4,0,9.7-4.3,9.7-9.7S53.8,97,48.5,97z"/>
<path class="st2" d="M168.4,31.2L141,58.7c-3.8,3.8-3.8,9.9,0,13.7c1.9,1.9,4.4,2.8,6.9,2.8c2.5,0,5-0.9,6.9-2.8L182.1,45 c3.8-3.8,3.8-9.9,0-13.7C178.3,27.5,172.2,27.5,168.4,31.2z"/>
<path class="st3" d="M106.7,164.8c-5.4,0-9.7,4.3-9.7,9.7v19.4c0,5.4,4.3,9.7,9.7,9.7c5.4,0,9.7-4.3,9.7-9.7v-19.4 C116.4,169.2,112,164.8,106.7,164.8z"/>
<path class="st4" d="M106.7,0C101.3,0,97,4.3,97,9.7v38.8c0,5.4,4.3,9.7,9.7,9.7c5.4,0,9.7-4.3,9.7-9.7V9.7C116.4,4.3,112,0,106.7,0 z"/>
<path class="st5" d="M45,31.2c-3.8-3.8-9.9-3.8-13.7,0s-3.8,9.9,0,13.7l27.4,27.4c1.9,1.9,4.4,2.8,6.9,2.8c2.5,0,5-0.9,6.9-2.8 c3.8-3.8,3.8-9.9,0-13.7L45,31.2z"/>
<path class="st6" d="M58.7,141l-23.4,23.4c-3.8,3.8-3.8,9.9,0,13.7c3.8,3.8,9.9,3.8,13.7,0l23.4-23.4c3.8-3.8,3.8-9.9,0-13.7 C68.6,137.2,62.5,137.2,58.7,141z"/>
</svg>
